<?xml version="1.0" encoding="utf-8"?>
<!-- Generator: Adobe Illustrator 17.0.0, SVG Export Plug-In . SVG Version: 6.00 Build 0)  -->
<!DOCTYPE svg PUBLIC "-//W3C//DTD SVG 1.1//EN" "http://www.w3.org/Graphics/SVG/1.1/DTD/svg11.dtd">
<svg version="1.1" id="Layer_1" xmlns="http://www.w3.org/2000/svg" xmlns:xlink="http://www.w3.org/1999/xlink" x="0px" y="0px"
	 width="341.5px" height="344px" viewBox="0 0 341.5 344" enable-background="new 0 0 341.5 344" xml:space="preserve">
<g>
	<g>
		<g>
			<path fill="#045BA7" d="M54.625,287.224c-3.663-3.08-3.991-8.387-0.728-11.849l0,0c44.761-47.558,68.533-75.814,89.829-104.099
				l0,0c6.282-8.826,9.972-15.921,7.121-19.84l0,0c-0.69-0.744-2.41-1.868-5.294-2.849l0,0c-5.671-2.022-15.15-3.256-25.547-4.432
				l0,0c-21.047-1.355-34.176-3.519-42.746-5.791l0,0c-8.538-2.284-12.769-4.665-15.399-7.132l0,0
				c-0.307-0.282-0.606-0.613-0.85-0.891l0,0c-4.229-4.057-5.999-9.671-5.924-14.714l0,0c0.136-9.321,4.407-18.374,10.216-28.095
				l0,0c5.875-9.667,13.631-19.752,21.834-29.452l0,0c16.39-19.381,34.581-37.145,42.658-44.826l0,0v0.005
				c3.457-3.29,9.074-3.304,12.552-0.041l0,0c3.478,3.27,3.5,8.577,0.045,11.865l0,0c-11.686,11.057-46.149,45.097-61.695,70.807
				l0,0c-5.235,8.437-8.386,14.289-7.853,19.738l0,0c0.075,2.148,2.865,4.566,6.031,5.64l0,0c5.92,1.958,18.49,4.626,42.457,6.146
				l0,0l0.226,0.014l0.251,0.032c7.93,0.923,15.761,1.795,22.915,3.414l0,0c7.103,1.687,13.891,3.889,19.211,9.226l0,0
				c3.528,3.528,5.68,8.706,5.601,13.932l0,0c-0.115,8.242-3.978,16.412-11.116,26.671l0,0l-0.154,0.219
				c-21.735,28.867-46.079,57.783-91.099,105.617l0,0c-1.755,1.863-4.19,2.816-6.639,2.816l0,0
				C58.428,289.352,56.316,288.649,54.625,287.224L54.625,287.224z"/>
			<g>
				<path fill="#045BA7" d="M208.665,231.298c0,9.782-7.86,17.676-17.674,17.676c-9.655,0-17.556-7.895-17.556-17.676
					c0-9.663,7.901-17.544,17.556-17.544C200.805,213.753,208.665,221.635,208.665,231.298L208.665,231.298z"/>
				<path fill="#045BA7" d="M249.22,231.298c0,9.782-7.892,17.676-17.57,17.676c-9.755,0-17.619-7.895-17.619-17.676
					c0-9.663,7.865-17.544,17.619-17.544C241.328,213.753,249.22,221.635,249.22,231.298L249.22,231.298z"/>
				<path fill="#045BA7" d="M289.876,231.298c0,9.782-7.886,17.676-17.579,17.676c-9.764,0-17.668-7.895-17.668-17.676
					c0-9.663,7.904-17.544,17.668-17.544C281.99,213.753,289.876,221.635,289.876,231.298L289.876,231.298z"/>
				<path fill="#045BA7" d="M249.283,271.873c0,9.781-7.892,17.673-17.58,17.673c-9.767,0-17.672-7.892-17.672-17.673
					c0-9.665,7.905-17.547,17.672-17.547C241.391,254.326,249.283,262.208,249.283,271.873L249.283,271.873z"/>
			</g>
			<g>
				<path fill="#798CC6" d="M168.024,231.298c0,9.782-7.891,17.676-17.624,17.676c-9.667,0-17.56-7.895-17.56-17.676
					c0-9.663,7.894-17.544,17.56-17.544C160.133,213.753,168.024,221.635,168.024,231.298L168.024,231.298z"/>
				<path fill="#798CC6" d="M208.683,271.873c0,9.781-7.889,17.673-17.579,17.673c-9.764,0-17.669-7.892-17.669-17.673
					c0-9.665,7.905-17.547,17.669-17.547C200.794,254.326,208.683,262.208,208.683,271.873L208.683,271.873z"/>
				<path fill="#798CC6" d="M168.087,271.873c0,9.781-7.889,17.673-17.579,17.673c-9.764,0-17.669-7.892-17.669-17.673
					c0-9.665,7.905-17.547,17.669-17.547C160.198,254.326,168.087,262.208,168.087,271.873L168.087,271.873z"/>
			</g>
		</g>
		<g>
			<path fill="#045BA7" d="M64.633,307.729v8.43h-0.592c-0.197-1.617-0.538-2.903-1.036-3.865c-0.5-0.954-1.208-1.718-2.126-2.281
				c-0.918-0.563-1.872-0.848-2.854-0.848c-1.113,0-2.035,0.385-2.759,1.147c-0.731,0.757-1.095,1.626-1.095,2.593
				c0,0.747,0.233,1.425,0.689,2.035c0.663,0.896,2.241,2.097,4.733,3.593c2.032,1.221,3.424,2.159,4.163,2.811
				c0.744,0.655,1.314,1.424,1.716,2.31c0.403,0.889,0.599,1.814,0.599,2.787c0,1.845-0.637,3.437-1.915,4.776
				c-1.275,1.334-2.921,2.004-4.934,2.004c-0.628,0-1.223-0.054-1.777-0.166c-0.332-0.059-1.022-0.275-2.062-0.653
				c-1.04-0.38-1.703-0.568-1.981-0.568c-0.267,0-0.479,0.092-0.633,0.271c-0.154,0.179-0.272,0.55-0.346,1.115h-0.592v-8.358h0.592
				c0.278,1.748,0.651,3.057,1.124,3.926c0.473,0.866,1.189,1.592,2.157,2.166c0.971,0.574,2.028,0.862,3.184,0.862
				c1.339,0,2.392-0.394,3.168-1.183c0.776-0.796,1.165-1.725,1.165-2.806c0-0.602-0.149-1.206-0.443-1.816
				c-0.294-0.61-0.75-1.182-1.37-1.705c-0.416-0.364-1.558-1.126-3.417-2.295c-1.861-1.167-3.184-2.101-3.971-2.793
				c-0.784-0.696-1.382-1.463-1.786-2.302c-0.407-0.841-0.611-1.761-0.611-2.768c0-1.747,0.599-3.256,1.798-4.52
				c1.196-1.264,2.72-1.899,4.57-1.899c1.156,0,2.379,0.319,3.672,0.954c0.599,0.301,1.02,0.448,1.269,0.448
				c0.276,0,0.504-0.091,0.678-0.276c0.181-0.187,0.321-0.56,0.43-1.126H64.633z"/>
			<path fill="#045BA7" d="M72.637,315.711v3.706c1.23-2.472,2.494-3.706,3.787-3.706c0.586,0,1.074,0.199,1.459,0.599
				c0.384,0.403,0.579,0.868,0.579,1.395c0,0.468-0.14,0.864-0.418,1.187c-0.276,0.326-0.608,0.484-0.993,0.484
				c-0.375,0-0.796-0.204-1.26-0.62c-0.468-0.411-0.809-0.619-1.037-0.619c-0.19,0-0.398,0.12-0.624,0.359
				c-0.482,0.493-0.977,1.303-1.492,2.426v7.892c0,0.909,0.104,1.599,0.307,2.065c0.14,0.325,0.384,0.595,0.733,0.811
				c0.357,0.215,0.864,0.323,1.529,0.323v0.645h-7.523v-0.645c0.748,0,1.305-0.133,1.669-0.397c0.269-0.19,0.452-0.495,0.559-0.916
				c0.054-0.204,0.081-0.784,0.081-1.743v-6.377c0-1.919-0.034-3.062-0.104-3.426c-0.07-0.369-0.197-0.633-0.385-0.8
				c-0.19-0.168-0.421-0.251-0.698-0.251c-0.333,0-0.706,0.088-1.122,0.266l-0.161-0.644l4.441-2.015H72.637z"/>
			<path fill="#045BA7" d="M83.821,315.711v13.23c0,1.031,0.068,1.714,0.201,2.058c0.133,0.341,0.332,0.592,0.594,0.762
				c0.26,0.169,0.737,0.253,1.434,0.253v0.645h-7.136v-0.645c0.717,0,1.198-0.079,1.443-0.233c0.244-0.16,0.443-0.415,0.586-0.773
				c0.145-0.362,0.219-1.049,0.219-2.067v-6.347c0-1.786-0.05-2.94-0.149-3.466c-0.075-0.384-0.192-0.654-0.349-0.803
				c-0.163-0.148-0.382-0.221-0.66-0.221c-0.299,0-0.66,0.088-1.09,0.266l-0.224-0.644l4.425-2.015H83.821z M82.492,307.102
				c0.445,0,0.832,0.175,1.144,0.53c0.317,0.355,0.475,0.782,0.475,1.286c0,0.502-0.158,0.934-0.475,1.294
				c-0.312,0.357-0.699,0.538-1.144,0.538c-0.452,0-0.837-0.181-1.156-0.538c-0.323-0.359-0.482-0.791-0.482-1.294
				c0-0.504,0.158-0.932,0.475-1.286C81.641,307.277,82.031,307.102,82.492,307.102z"/>
			<path fill="#045BA7" d="M112.846,325.923l0.529,0.122l-1.863,6.613H94.671v-0.665h0.818c0.92,0,1.578-0.332,1.972-1.007
				c0.226-0.379,0.337-1.27,0.337-2.656v-15.727c0-1.524-0.147-2.476-0.448-2.863c-0.416-0.524-1.038-0.789-1.861-0.789h-0.818
				v-0.665h9.849v0.665c-1.153-0.012-1.962,0.11-2.433,0.357c-0.462,0.253-0.783,0.572-0.952,0.957
				c-0.169,0.382-0.258,1.3-0.258,2.749v15.315c0,0.992,0.088,1.675,0.258,2.049c0.127,0.253,0.326,0.436,0.593,0.553
				c0.269,0.122,1.101,0.181,2.503,0.181h1.587c1.667,0,2.84-0.138,3.514-0.414c0.671-0.273,1.289-0.764,1.845-1.463
				C111.732,328.534,112.288,327.428,112.846,325.923z"/>
			<path fill="#045BA7" d="M122.906,330.289c-1.508,1.302-2.453,2.06-2.838,2.263c-0.583,0.299-1.194,0.45-1.846,0.45
				c-1.017,0-1.854-0.391-2.514-1.169c-0.658-0.779-0.986-1.802-0.986-3.071c0-0.805,0.163-1.499,0.482-2.089
				c0.441-0.812,1.2-1.581,2.286-2.299c1.085-0.72,2.89-1.59,5.416-2.624v-0.648c0-1.642-0.233-2.766-0.699-3.376
				c-0.466-0.611-1.144-0.921-2.031-0.921c-0.674,0-1.207,0.204-1.605,0.61c-0.405,0.409-0.606,0.88-0.606,1.404l0.029,1.043
				c0,0.554-0.127,0.977-0.378,1.277c-0.249,0.299-0.577,0.448-0.986,0.448c-0.394,0-0.719-0.157-0.97-0.466
				c-0.251-0.314-0.378-0.74-0.378-1.276c0-1.031,0.471-1.976,1.411-2.842c0.941-0.862,2.261-1.294,3.964-1.294
				c1.303,0,2.375,0.244,3.209,0.737c0.631,0.373,1.095,0.954,1.393,1.744c0.195,0.513,0.291,1.57,0.291,3.163v5.59
				c0,1.569,0.025,2.53,0.079,2.883c0.052,0.355,0.14,0.59,0.265,0.71c0.119,0.125,0.264,0.184,0.427,0.184
				c0.169,0,0.316-0.045,0.443-0.129c0.229-0.153,0.66-0.589,1.3-1.311v1.009c-1.194,1.795-2.34,2.695-3.428,2.695
				c-0.527,0-0.945-0.204-1.255-0.613C123.076,331.964,122.915,331.271,122.906,330.289z M122.906,329.119v-6.272
				c-1.619,0.717-2.659,1.23-3.132,1.526c-0.843,0.529-1.447,1.081-1.809,1.655c-0.366,0.577-0.547,1.205-0.547,1.886
				c0,0.862,0.231,1.581,0.69,2.148c0.459,0.569,0.988,0.855,1.587,0.855C120.51,330.917,121.577,330.318,122.906,329.119z"/>
			<path fill="#045BA7" d="M132.917,319.198c1.723-2.325,3.365-3.487,4.925-3.487c0.801,0,1.49,0.224,2.069,0.674
				c0.577,0.45,1.038,1.192,1.377,2.221c0.238,0.717,0.355,1.822,0.355,3.308v7.028c0,1.04,0.074,1.75,0.221,2.121
				c0.118,0.296,0.312,0.529,0.574,0.699c0.26,0.169,0.741,0.253,1.452,0.253v0.645h-7.27v-0.645h0.307
				c0.683,0,1.162-0.117,1.434-0.35c0.272-0.233,0.464-0.578,0.568-1.031c0.045-0.185,0.066-0.746,0.066-1.691V322.2
				c0-1.499-0.174-2.586-0.52-3.263c-0.346-0.678-0.936-1.013-1.757-1.013c-1.273,0-2.539,0.776-3.801,2.334v8.683
				c0,1.115,0.057,1.8,0.177,2.067c0.149,0.346,0.355,0.599,0.62,0.764c0.26,0.16,0.791,0.242,1.594,0.242v0.645h-7.265v-0.645
				h0.321c0.746,0,1.253-0.212,1.515-0.639c0.262-0.427,0.393-1.238,0.393-2.434v-6.115c0-1.972-0.041-3.179-0.122-3.609
				c-0.079-0.432-0.201-0.728-0.368-0.882c-0.165-0.156-0.389-0.233-0.663-0.233c-0.303,0-0.663,0.088-1.076,0.266l-0.242-0.644
				l4.425-2.015h0.692V319.198z"/>
			<path fill="#045BA7" d="M148.881,307.102v16.392l3.738-3.83c0.791-0.814,1.251-1.327,1.379-1.542
				c0.086-0.145,0.129-0.29,0.129-0.43c0-0.244-0.088-0.45-0.267-0.624c-0.177-0.175-0.469-0.274-0.873-0.296V316.2h6.383v0.572
				c-0.877,0.022-1.606,0.174-2.191,0.445c-0.581,0.28-1.219,0.77-1.915,1.478l-3.77,3.898l3.77,5.339
				c1.049,1.475,1.755,2.411,2.116,2.802c0.513,0.565,0.963,0.933,1.348,1.099c0.267,0.122,0.733,0.18,1.396,0.18v0.645h-7.137
				v-0.645c0.405-0.015,0.681-0.082,0.826-0.207c0.144-0.125,0.217-0.303,0.217-0.53c0-0.276-0.215-0.722-0.64-1.329l-4.508-6.454
				v5.464c0,1.066,0.065,1.768,0.199,2.105c0.136,0.332,0.326,0.577,0.572,0.719c0.244,0.145,0.78,0.217,1.603,0.233v0.645h-7.476
				v-0.645c0.749,0,1.309-0.103,1.685-0.307c0.226-0.131,0.396-0.335,0.511-0.608c0.163-0.398,0.242-1.081,0.242-2.049v-14.997
				c0-1.904-0.036-3.066-0.113-3.494c-0.072-0.423-0.197-0.716-0.366-0.877c-0.174-0.165-0.396-0.242-0.676-0.242
				c-0.224,0-0.56,0.097-1.01,0.301l-0.272-0.627l4.364-2.013H148.881z"/>
			<path fill="#045BA7" d="M168.757,330.289c-1.508,1.302-2.453,2.06-2.838,2.263c-0.581,0.299-1.194,0.45-1.845,0.45
				c-1.015,0-1.855-0.391-2.512-1.169c-0.656-0.779-0.988-1.802-0.988-3.071c0-0.805,0.162-1.499,0.484-2.089
				c0.439-0.812,1.2-1.581,2.286-2.299c1.083-0.72,2.89-1.59,5.413-2.624v-0.648c0-1.642-0.233-2.766-0.699-3.376
				c-0.466-0.611-1.142-0.921-2.03-0.921c-0.672,0-1.208,0.204-1.603,0.61c-0.405,0.409-0.608,0.88-0.608,1.404l0.032,1.043
				c0,0.554-0.125,0.977-0.375,1.277c-0.253,0.299-0.581,0.448-0.988,0.448c-0.398,0-0.719-0.157-0.97-0.466
				c-0.249-0.314-0.375-0.74-0.375-1.276c0-1.031,0.47-1.976,1.411-2.842c0.938-0.862,2.259-1.294,3.961-1.294
				c1.303,0,2.372,0.244,3.207,0.737c0.631,0.373,1.097,0.954,1.395,1.744c0.195,0.513,0.29,1.57,0.29,3.163v5.59
				c0,1.569,0.027,2.53,0.079,2.883c0.052,0.355,0.143,0.59,0.267,0.71c0.122,0.125,0.263,0.184,0.425,0.184
				c0.169,0,0.319-0.045,0.449-0.129c0.222-0.153,0.656-0.589,1.298-1.311v1.009c-1.199,1.795-2.343,2.695-3.432,2.695
				c-0.525,0-0.943-0.204-1.25-0.613C168.927,331.964,168.768,331.271,168.757,330.289z M168.757,329.119v-6.272
				c-1.615,0.717-2.657,1.23-3.127,1.526c-0.846,0.529-1.452,1.081-1.813,1.655c-0.364,0.577-0.545,1.205-0.545,1.886
				c0,0.862,0.229,1.581,0.688,2.148c0.461,0.569,0.99,0.855,1.589,0.855C166.36,330.917,167.43,330.318,168.757,329.119z"/>
			<path fill="#045BA7" d="M199.559,308.287l0.24,5.716h-0.611c-0.115-1.009-0.275-1.725-0.477-2.156
				c-0.332-0.697-0.775-1.208-1.324-1.535c-0.552-0.333-1.278-0.495-2.176-0.495h-3.062v18.619c0,1.499,0.145,2.435,0.435,2.806
				c0.406,0.502,1.03,0.753,1.877,0.753h0.75v0.665h-9.222v-0.665h0.774c0.915,0,1.569-0.312,1.954-0.932
				c0.237-0.387,0.355-1.259,0.355-2.627v-18.619h-2.616c-1.013,0-1.736,0.086-2.166,0.253c-0.554,0.226-1.031,0.665-1.429,1.31
				c-0.394,0.648-0.629,1.522-0.703,2.624h-0.608l0.255-5.716H199.559z"/>
			<path fill="#045BA7" d="M201.294,322.395c-0.009,2.444,0.52,4.362,1.589,5.752c1.072,1.393,2.328,2.088,3.77,2.088
				c0.962,0,1.798-0.299,2.511-0.889c0.707-0.595,1.306-1.61,1.788-3.048l0.498,0.359c-0.226,1.642-0.877,3.137-1.958,4.484
				c-1.081,1.35-2.431,2.024-4.059,2.024c-1.761,0-3.272-0.771-4.528-2.311c-1.256-1.537-1.886-3.609-1.886-6.211
				c0-2.816,0.642-5.008,1.933-6.587c1.286-1.576,2.903-2.365,4.853-2.365c1.646,0,2.998,0.61,4.057,1.827
				c1.058,1.217,1.59,2.842,1.59,4.877H201.294z M201.294,321.354h6.799c-0.052-1.054-0.163-1.797-0.334-2.227
				c-0.27-0.674-0.667-1.199-1.197-1.581c-0.527-0.388-1.081-0.577-1.66-0.577c-0.886,0-1.677,0.385-2.384,1.161
				C201.823,318.899,201.413,319.976,201.294,321.354z"/>
			<path fill="#045BA7" d="M217.934,307.102v21.839c0,1.031,0.063,1.712,0.199,2.046c0.136,0.338,0.339,0.59,0.619,0.765
				c0.276,0.174,0.796,0.262,1.556,0.262v0.645h-7.205v-0.645c0.674,0,1.133-0.079,1.38-0.233c0.246-0.16,0.438-0.415,0.577-0.773
				c0.139-0.362,0.207-1.049,0.207-2.067v-14.956c0-1.859-0.036-2.998-0.109-3.426c-0.076-0.423-0.196-0.712-0.364-0.87
				c-0.165-0.157-0.375-0.235-0.633-0.235c-0.278,0-0.631,0.1-1.058,0.287l-0.272-0.627l4.378-2.013H217.934z"/>
			<path fill="#045BA7" d="M223.949,322.395c-0.009,2.444,0.52,4.362,1.587,5.752c1.072,1.393,2.329,2.088,3.774,2.088
				c0.961,0,1.798-0.299,2.512-0.889c0.71-0.595,1.305-1.61,1.786-3.048l0.498,0.359c-0.226,1.642-0.878,3.137-1.958,4.484
				c-1.079,1.35-2.434,2.024-4.057,2.024c-1.764,0-3.275-0.771-4.532-2.311c-1.257-1.537-1.886-3.609-1.886-6.211
				c0-2.816,0.647-5.008,1.936-6.587c1.285-1.576,2.903-2.365,4.848-2.365c1.649,0,3.003,0.61,4.061,1.827
				c1.057,1.217,1.588,2.842,1.588,4.877H223.949z M223.949,321.354h6.803c-0.052-1.054-0.162-1.797-0.337-2.227
				c-0.266-0.674-0.665-1.199-1.193-1.581c-0.53-0.388-1.081-0.577-1.66-0.577c-0.886,0-1.682,0.385-2.383,1.161
				C224.477,318.899,224.071,319.976,223.949,321.354z"/>
			<path fill="#045BA7" d="M248.017,326.406c-0.393,2.167-1.175,3.838-2.328,5.002c-1.153,1.172-2.434,1.757-3.835,1.757
				c-1.667,0-3.121-0.787-4.362-2.354c-1.239-1.574-1.86-3.693-1.86-6.364c0-2.589,0.688-4.694,2.061-6.311
				c1.374-1.617,3.026-2.426,4.952-2.426c1.438,0,2.627,0.427,3.559,1.285c0.932,0.856,1.398,1.748,1.398,2.668
				c0,0.457-0.131,0.826-0.398,1.105c-0.258,0.283-0.628,0.423-1.095,0.423c-0.633,0-1.108-0.228-1.429-0.68
				c-0.181-0.253-0.303-0.733-0.362-1.439c-0.059-0.708-0.276-1.248-0.651-1.617c-0.371-0.361-0.891-0.54-1.556-0.54
				c-1.067,0-1.928,0.441-2.58,1.33c-0.865,1.176-1.3,2.727-1.3,4.656c0,1.965,0.432,3.699,1.291,5.2
				c0.862,1.506,2.022,2.255,3.489,2.255c1.045,0,1.99-0.398,2.823-1.203c0.588-0.552,1.161-1.552,1.718-2.998L248.017,326.406z"/>
			<path fill="#045BA7" d="M256.777,315.711c2.225,0,4.007,0.948,5.36,2.843c1.144,1.614,1.714,3.473,1.714,5.567
				c0,1.478-0.312,2.969-0.945,4.477c-0.633,1.511-1.497,2.651-2.609,3.417c-1.108,0.767-2.338,1.152-3.695,1.152
				c-2.212,0-3.971-0.993-5.278-2.965c-1.104-1.667-1.65-3.536-1.65-5.61c0-1.51,0.334-3.011,1.004-4.504
				c0.665-1.487,1.546-2.594,2.636-3.305C254.403,316.068,255.561,315.711,256.777,315.711z M256.28,316.88
				c-0.566,0-1.135,0.188-1.709,0.568c-0.57,0.376-1.031,1.036-1.384,1.984c-0.358,0.945-0.529,2.164-0.529,3.649
				c0,2.397,0.42,4.461,1.275,6.2c0.85,1.738,1.967,2.605,3.361,2.605c1.036,0,1.89-0.477,2.564-1.438
				c0.67-0.957,1.013-2.603,1.013-4.939c0-2.924-0.565-5.226-1.687-6.904C258.423,317.456,257.455,316.88,256.28,316.88z"/>
			<path fill="#045BA7" d="M269.851,319.218c1.067-1.2,1.7-1.89,1.895-2.069c0.479-0.454,0.995-0.808,1.555-1.061
				c0.557-0.253,1.104-0.378,1.651-0.378c0.918,0,1.709,0.299,2.374,0.9c0.661,0.598,1.104,1.466,1.33,2.607
				c1.099-1.438,2.031-2.384,2.795-2.834c0.755-0.45,1.537-0.674,2.339-0.674c0.782,0,1.474,0.224,2.075,0.674
				c0.607,0.45,1.081,1.183,1.439,2.203c0.235,0.694,0.353,1.784,0.353,3.272v7.082c0,1.031,0.068,1.735,0.207,2.121
				c0.109,0.263,0.308,0.486,0.593,0.672c0.29,0.187,0.76,0.28,1.41,0.28v0.645h-7.249v-0.645h0.308
				c0.628,0,1.121-0.138,1.474-0.416c0.249-0.19,0.421-0.495,0.529-0.916c0.041-0.204,0.063-0.787,0.063-1.741v-7.082
				c0-1.343-0.144-2.288-0.434-2.84c-0.416-0.769-1.085-1.149-2.004-1.149c-0.565,0-1.135,0.157-1.709,0.475
				c-0.57,0.317-1.262,0.907-2.076,1.768l-0.032,0.199l0.032,0.776v7.853c0,1.123,0.054,1.825,0.168,2.103
				c0.112,0.273,0.325,0.504,0.637,0.69c0.308,0.187,0.836,0.28,1.582,0.28v0.645h-7.425v-0.645c0.814,0,1.371-0.109,1.677-0.323
				c0.303-0.216,0.516-0.54,0.634-0.97c0.053-0.204,0.081-0.8,0.081-1.78v-7.082c0-1.343-0.176-2.309-0.529-2.894
				c-0.471-0.769-1.131-1.151-1.972-1.151c-0.578,0-1.153,0.174-1.718,0.522c-0.886,0.527-1.574,1.119-2.053,1.777v8.828
				c0,1.076,0.068,1.78,0.204,2.103c0.131,0.321,0.33,0.563,0.592,0.728c0.258,0.16,0.791,0.242,1.592,0.242v0.645h-7.263v-0.645
				c0.674,0,1.144-0.082,1.411-0.242c0.266-0.165,0.47-0.423,0.61-0.773c0.14-0.353,0.208-1.04,0.208-2.058v-6.293
				c0-1.809-0.05-2.978-0.145-3.504c-0.073-0.394-0.19-0.67-0.353-0.819c-0.163-0.148-0.379-0.221-0.655-0.221
				c-0.303,0-0.661,0.088-1.076,0.266l-0.24-0.644l4.423-2.015h0.692V319.218z"/>
		</g>
	</g>
</g>
</svg>
